# xmcd
#
# Track frame offsets:
#	150
#	17025
#	40837
#	61275
#	81900
#	103462
#	125062
#	159600
#	183150
#	234637
#
# Disc length: 3303 seconds
#
# Revision: 1
# Processed by: cddbd v1.5PL3 Copyright (c) Steve Scherf et al.
# Submitted via: CDex 1.50Beta5
#
DISCID=850ce50a
DTITLE=Upsets - sound of sleep
DYEAR=2002
DGENRE=Dance
TTITLE0=intro
TTITLE1=in love
TTITLE2=shine
TTITLE3=spring will come
TTITLE4=beauty
TTITLE5=shine(re)
TTITLE6=spring has come
TTITLE7=stoned in shining
TTITLE8=sound of sleep
TTITLE9=attentiveness
EXTD=
EXTT0=
EXTT1=
EXTT2=
EXTT3=
EXTT4=
EXTT5=
EXTT6=
EXTT7=
EXTT8=
EXTT9=
PLAYORDER=
